<svg xmlns="http://www.w3.org/2000/svg" width="128" height="128"><path fill="none" stroke="#000" stroke-width="5" stroke-miterlimit="10" d="M124.32 67.64l-.08-.1-.1-.11-5.97-6.83a3.6 3.6 0 00-2.8-1.35H82.9l-4.29-25.22V34l-.01-.03a3.9 3.9 0 00-1.35-2.28l-.11-.09-.13-.08L47.44 11.8a5.02 5.02 0 00-2.95-.77h-1.02a4.5 4.5 0 00-2.28.44c-.24.09-.48.2-.7.35l-29.54 19.7-.12.08-.1.1a3.91 3.91 0 00-1.36 2.27V34l-.01.03L3 71.4a3.88 3.88 0 005.95 3.97l12.37 35.27.68 1.95H49.1l54.52.4 1.36.01.88-1.04 12.66-14.93c.13-.16.25-.33.35-.5l2.28-.03a3.47 3.47 0 003.43-3.09l.01-.13v-.13l.48-22.93c.06-.91-.2-1.82-.74-2.58z"/><linearGradient id="e" gradientUnits="userSpaceOnUse" x1="64" y1="52.42" x2="64" y2="111.42"><stop offset=".11" stop-color="#fffbf2"/><stop offset=".31" stop-color="#fbf8f0"/><stop offset=".53" stop-color="#eef0e9"/><stop offset=".76" stop-color="#d8e1dd"/><stop offset=".98" stop-color="#bacdcd"/><stop offset="1" stop-color="#b8cccc"/></linearGradient><path fill="url(#e)" d="M49.3 111.01H23.22L9.83 72.85l32.58-20.02a2.77 2.77 0 012.85-.03l34.2 20.06-7.76 18.96 44.33.58c.84.01 1.58.5 1.93 1.26.35.77.23 1.64-.31 2.29l-13.11 15.47-55.24-.4z"/><path fill="#6BB2B0" d="M43.86 53.92c.22 0 .44.05.64.17l33.08 19.4-8.1 19.8 46.53.6c.56.02.85.67.5 1.09l-12.67 14.94-54.53-.4H24.28L11.65 73.5 43.2 54.1c.2-.12.43-.18.66-.18m0-3c-.79 0-1.56.21-2.23.63L10.08 70.94l-2.06 1.27.8 2.28 12.63 36.02.7 2h27.16l54.51.4 1.4.02.91-1.07 12.66-14.94a3.67 3.67 0 00.54-3.88 3.62 3.62 0 00-3.28-2.14l-42.12-.55 6.43-15.72.98-2.4-2.24-1.32-33.08-19.4a4.28 4.28 0 00-2.16-.6z"/><path d="M89.83 102.31h-6.7l5.54-8.42h6.7zM99.22 102.31h-6.7l5.55-8.42h6.7z"/><linearGradient id="f" gradientUnits="userSpaceOnUse" x1="97.2" y1="60.49" x2="97.2" y2="95.39"><stop offset=".2" stop-color="#b8cccc"/><stop offset=".2" stop-color="#bacdcd"/><stop offset=".23" stop-color="#d8e1dd"/><stop offset=".25" stop-color="#eef0e9"/><stop offset=".28" stop-color="#fbf8f0"/><stop offset=".3" stop-color="#fffbf2"/></linearGradient><path fill="url(#f)" d="M72.38 95.4a1.85 1.85 0 01-1.74-2.5l12.5-32.4h32.44c.68 0 1.31.3 1.72.83l6.05 6.9.04.07c.35.49.52 1.09.47 1.69l-.47 23.03v.07a2.07 2.07 0 01-2.06 1.83l-48.94.47z"/><path fill="#6BB2B0" d="M115.58 62c.23 0 .43.1.56.28l6.04 6.9c.15.2.21.46.18.72l-.47 23.02a.56.56 0 01-.56.5l-48.95.48a.35.35 0 01-.33-.48l12.12-31.43h31.41m0-3H82.11l-.73 1.92-12.13 31.43v.02l-.02.03a3.36 3.36 0 003.15 4.5l48.98-.47c1.78 0 3.3-1.36 3.51-3.16l.02-.14v-.14l.47-22.92c.07-.94-.2-1.88-.75-2.64l-.08-.12-.1-.1-5.97-6.83a3.7 3.7 0 00-2.88-1.38z"/><g><linearGradient id="g" gradientUnits="userSpaceOnUse" x1="42.99" y1="54.08" x2="10.19" y2="35.14"><stop offset=".11" stop-color="#fffbf2"/><stop offset=".36" stop-color="#fbf9f1"/><stop offset=".63" stop-color="#eef3ee"/><stop offset=".9" stop-color="#d8eae8"/><stop offset="1" stop-color="#cfe6e6"/></linearGradient><path fill="url(#g)" d="M7.06 74.42a2.5 2.5 0 01-2.45-2.96l6.35-37.36c.11-.6.42-1.12.87-1.49l.06-.05 30-20.01.54-.02c.9 0 1.64.73 1.64 1.63v37.38c0 .75-.34 1.46-.92 1.93l-.09.07-34.54 20.4c-.43.32-.93.48-1.46.48z"/><path fill="#6BB2B0" d="M42.43 14.03c.07 0 .14.05.14.13v37.38a1 1 0 01-.37.77L7.68 72.7a1 1 0 01-1.6-.95l6.36-37.4a.98.98 0 01.34-.58l29.57-19.72a.14.14 0 01.08-.02m0-3c-.63 0-1.24.18-1.77.54l-29.54 19.7-.12.09-.12.1a3.99 3.99 0 00-1.39 2.33v.06L3.12 71.22a3.97 3.97 0 003.93 4.7c.81 0 1.6-.25 2.27-.72l34.4-20.3.19-.12.17-.14a3.98 3.98 0 001.48-3.1V14.16c0-1.72-1.4-3.13-3.14-3.13z"/></g><g><linearGradient id="h" gradientUnits="userSpaceOnUse" x1="78.21" y1="35.14" x2="45.41" y2="54.08"><stop offset="0" stop-color="#cfe6e6"/><stop offset=".1" stop-color="#d8eae8"/><stop offset=".37" stop-color="#eef3ee"/><stop offset=".64" stop-color="#fbf9f1"/><stop offset=".89" stop-color="#fffbf2"/></linearGradient><path fill="url(#h)" d="M81.34 74.42c-.53 0-1.03-.16-1.46-.48l-34.54-20.4-.09-.07a2.48 2.48 0 01-.92-1.93V14.16c0-.9.74-1.63 1.64-1.63h.46l.46.28 29.62 19.76.06.04c.45.37.76.9.86 1.46L83.8 71.5a2.5 2.5 0 01-2.46 2.93z"/><path fill="#6BB2B0" d="M45.97 14.03c.03 0 .05 0 .08.02l29.57 19.72c.17.15.3.35.34.58l6.36 37.4a1 1 0 01-1.6.95L46.2 52.3a.99.99 0 01-.37-.76V14.16c0-.08.07-.13.14-.13m0-3a3.14 3.14 0 00-3.14 3.13v37.38c0 1.21.54 2.34 1.48 3.1l.17.14.2.11L79.06 75.2a3.99 3.99 0 006.2-3.98l-6.35-37.37v-.03l-.01-.03a4 4 0 00-1.39-2.33l-.11-.1-.13-.08-29.57-19.72a3.1 3.1 0 00-1.74-.53z"/></g><path d="M48.3 112.62h-9.55l-1.61-11.26a5.76 5.76 0 013.14-5.13c1.91-.98 4.17-1 6.1-.07l.22.1a5.76 5.76 0 013.25 5.19l-1.55 11.17zM47.2 78.19h-7.37l-1.24-8.55c0-1.64.94-3.14 2.42-3.89a5.36 5.36 0 014.71-.05l.17.07a4.37 4.37 0 012.5 3.94l-1.2 8.48z"/></svg>